<svg width="24" height="26" viewBox="0 0 24 26" fill="none" xmlns="http://www.w3.org/2000/svg">
<path d="M21.9958 5.74022L12.5603 0.278737C12.2429 0.0961141 11.8831 0 11.5169 0C11.1506 0 10.7908 0.0961141 10.4734 0.278737L1.03791 5.74022C0.72182 5.92336 0.459504 6.18647 0.277316 6.50311C0.0951277 6.81975 -0.00051369 7.17876 2.07502e-06 7.54407V18.4559C-0.00051369 18.8212 0.0951277 19.1803 0.277316 19.4969C0.459504 19.8135 0.72182 20.0766 1.03791 20.2598L10.4734 25.7213C10.7908 25.9039 11.1506 26 11.5169 26C11.8831 26 12.2429 25.9039 12.5603 25.7213L21.9958 20.2598C22.3119 20.0766 22.5742 19.8135 22.7564 19.4969C22.9386 19.1803 23.0342 18.8212 23.0337 18.4559V7.54407C23.0342 7.17876 22.9386 6.81975 22.7564 6.50311C22.5742 6.18647 22.3119 5.92336 21.9958 5.74022ZM11.3337 20.2986C6.5882 20.2986 4.15162 17.2793 4.15162 13.0833C4.15162 8.88724 6.92676 5.65697 11.5335 5.65697C16.6731 5.65697 18.105 9.04264 18.1939 10.6522H14.0644C13.8091 9.50887 13.1042 8.71518 11.4558 8.71518C9.5243 8.71518 8.43089 10.2693 8.43089 12.9833C8.43089 15.9639 9.5909 17.3237 11.4391 17.3237C12.0174 17.3556 12.5894 17.1908 13.062 16.8563C13.5347 16.5217 13.8802 16.0369 14.0422 15.481H18.1883C17.661 17.7843 15.8738 20.2986 11.3337 20.2986ZM21.0023 12.5282H20.4473L20.2808 13.2109H20.7303V13.827H20.142L19.9033 14.8205H19.3483L19.5925 13.827H18.9764L18.7156 14.7983H18.1605L18.4048 13.8048H17.9718V13.1887H18.5602L18.7156 12.506H18.2438V11.8899H18.8654L19.093 10.9741H19.648L19.4427 11.8899H20.0587L20.2808 10.9741H20.8358L20.6082 11.8899H21.0078L21.0023 12.5282Z" fill="black"/>
<path d="M19.126 13.1887H19.7365L19.903 12.506H19.2925L19.126 13.1887Z" fill="black"/>
</svg>
