<svg width="45" height="45" viewBox="0 0 45 45" fill="none" xmlns="http://www.w3.org/2000/svg">
<path d="M45 40.7812C45 43.1112 43.1112 45 40.7812 45H4.21875C1.88877 45 0 43.1112 0 40.7812V17.6418C7.77141e-06 17.002 0.145502 16.3707 0.425477 15.7955C0.705451 15.2203 1.11257 14.7163 1.61604 14.3216C3.80566 12.6052 5.61516 11.2134 16.0477 3.64194C17.5264 2.56378 20.4607 -0.0304844 22.5 0.000277326C24.5389 -0.0308359 27.4743 2.56422 28.9523 3.64185C39.3838 11.2125 41.1957 12.6062 43.384 14.3216C43.8874 14.7163 44.2945 15.2203 44.5745 15.7955C44.8545 16.3707 45 17.002 45 17.6418V40.7812ZM39.2286 23.5015C39.0033 23.1739 38.5518 23.0977 38.232 23.3339C36.2241 24.8169 33.3574 26.9115 28.9523 30.1084C27.4736 31.1865 24.5393 33.7806 22.5 33.7497C20.46 33.78 17.529 31.1883 16.0477 30.1084C11.6431 26.9118 8.77614 24.8171 6.76802 23.3339C6.44818 23.0977 5.99669 23.1739 5.77143 23.5015L4.97408 24.6613C4.87073 24.8116 4.82982 24.9961 4.85997 25.176C4.89013 25.3558 4.989 25.5169 5.13571 25.6252C7.14727 27.1105 10.0096 29.2015 14.3909 32.3812C16.1728 33.6803 19.3588 36.5835 22.5 36.5624C25.6398 36.5837 28.8247 33.6822 30.6091 32.3812C34.9904 29.2014 37.8528 27.1104 39.8642 25.6252C40.0109 25.5169 40.1098 25.3558 40.1399 25.176C40.1701 24.9961 40.1292 24.8116 40.0258 24.6613L39.2286 23.5015Z" fill="black"/>
</svg>
