<svg width="19" height="27" viewBox="0 0 19 27" fill="none" xmlns="http://www.w3.org/2000/svg">
<path d="M0 5.05155C0 2.26166 2.26166 0 5.05158 0H13.7194C16.5093 0 18.771 2.26166 18.771 5.05155C18.771 6.81813 17.8642 8.37295 16.4906 9.27582C17.8642 10.1787 18.771 11.7335 18.771 13.5001C18.771 16.29 16.5093 18.5517 13.7194 18.5517H13.6097C12.3018 18.5517 11.11 18.0546 10.2129 17.2391V21.8936C10.2129 24.7207 7.89207 27 5.07879 27C2.29585 27 0 24.7452 0 21.9484C0 20.1819 0.906741 18.6272 2.28019 17.7243C0.906741 16.8214 0 15.2666 0 13.5001C0 11.7335 0.90682 10.1787 2.28037 9.27582C0.90682 8.37295 0 6.81813 0 5.05155ZM8.55816 10.1032H5.05158C3.17552 10.1032 1.65469 11.6241 1.65469 13.5001C1.65469 15.3689 3.16379 16.8852 5.02986 16.8969C5.03708 16.8969 5.04431 16.8969 5.05158 16.8969H8.55816V10.1032ZM10.2129 13.5001C10.2129 15.3761 11.7337 16.897 13.6097 16.897H13.7194C15.5955 16.897 17.1163 15.3761 17.1163 13.5001C17.1163 11.6241 15.5955 10.1032 13.7194 10.1032H13.6097C11.7337 10.1032 10.2129 11.6241 10.2129 13.5001ZM5.05158 18.5517C5.04431 18.5517 5.03708 18.5516 5.02986 18.5516C3.16379 18.5633 1.65469 20.0796 1.65469 21.9484C1.65469 23.8176 3.19583 25.3453 5.07879 25.3453C6.9921 25.3453 8.55816 23.793 8.55816 21.8936V18.5517H5.05158ZM5.05158 1.65469C3.17552 1.65469 1.65469 3.17552 1.65469 5.05155C1.65469 6.92761 3.17552 8.44842 5.05158 8.44842H8.55816V1.65469H5.05158ZM10.2129 8.44842H13.7194C15.5955 8.44842 17.1163 6.92761 17.1163 5.05155C17.1163 3.17552 15.5955 1.65469 13.7194 1.65469H10.2129V8.44842Z" fill="black"/>
</svg>
