<svg width="26" height="26" viewBox="0 0 26 26" fill="none" xmlns="http://www.w3.org/2000/svg">
<path fill-rule="evenodd" clip-rule="evenodd" d="M17.5361 20.4605C17.5718 20.392 17.606 20.3315 17.6351 20.2688C17.6534 20.2287 17.6817 20.2207 17.7215 20.2218C17.9605 20.2285 18.1995 20.2359 18.4387 20.2382C18.6419 20.2403 18.8454 20.2365 19.0488 20.2342C19.2778 20.2315 19.5069 20.2194 19.7358 20.226C20.0406 20.2348 20.3376 20.2945 20.6133 20.4302C20.9426 20.5924 21.1917 20.8394 21.3615 21.1649C21.4699 21.3726 21.5328 21.5931 21.5579 21.8272C21.5941 22.1664 21.5703 22.4978 21.4627 22.8222C21.3294 23.2243 21.0763 23.532 20.7247 23.7626C20.454 23.94 20.1572 24.0448 19.8391 24.1047C19.5025 24.1682 19.1648 24.1477 18.8271 24.1488C18.4567 24.1503 18.0865 24.1423 17.7161 24.138C17.6513 24.1374 17.642 24.1252 17.6591 24.0634L17.6749 24.0064C17.711 23.8929 17.7304 23.8879 17.8456 23.8689C17.9253 23.856 18.008 23.8261 18.0749 23.7818C18.1137 23.756 18.1297 23.6889 18.1449 23.6373C18.158 23.5921 18.1586 23.5426 18.159 23.4949C18.1643 22.7724 18.1698 22.0502 18.1727 21.3281C18.1734 21.1457 18.1692 20.9628 18.159 20.7805C18.1519 20.6529 18.0837 20.5656 17.9319 20.5354C17.8137 20.512 17.6948 20.4939 17.576 20.473L17.5361 20.4605ZM20.9272 22.2099C20.9111 22.066 20.9033 21.9209 20.8776 21.7791C20.816 21.4389 20.6671 21.1425 20.4055 20.9103C19.9826 20.535 19.4734 20.4772 18.9397 20.5219C18.8182 20.5321 18.7921 20.5736 18.7902 20.6985C18.7872 20.8757 18.7843 21.0529 18.784 21.23C18.7832 21.792 18.7832 22.3539 18.784 22.9159C18.7843 23.0758 18.7859 23.2356 18.7906 23.3951C18.7956 23.5584 18.8549 23.6965 19.0148 23.7598C19.2669 23.8596 19.532 23.8714 19.7965 23.8307C20.219 23.7659 20.5146 23.5198 20.7129 23.1508C20.8698 22.8581 20.9141 22.5385 20.9272 22.2099ZM21.9542 24.1233C21.9492 24.0357 21.985 23.9634 22.0293 23.8969C22.0413 23.879 22.0827 23.8798 22.1112 23.8741L22.3529 23.8263C22.4383 23.8081 22.4832 23.7508 22.4953 23.667C22.5033 23.6117 22.5109 23.5558 22.5115 23.4999C22.5168 23.0576 22.5219 22.6153 22.524 22.1729C22.5261 21.73 22.5244 21.287 22.5244 20.844L22.5225 20.7594C22.5138 20.6171 22.4451 20.5432 22.3037 20.5224L21.9972 20.4757C21.9595 20.4707 21.9458 20.4525 21.9595 20.419C21.9831 20.3618 22.0057 20.3026 22.039 20.2511C22.0515 20.2321 22.0934 20.2247 22.1217 20.2254C22.2681 20.2275 22.4145 20.2384 22.5609 20.2382L23.8351 20.2306C24.0807 20.2304 24.3178 20.2732 24.538 20.3907C24.7804 20.5198 24.916 20.7196 24.9548 20.9917C24.9953 21.2775 24.9086 21.5184 24.6998 21.7097C24.6139 21.7886 24.5028 21.8401 24.4032 21.9042L24.3707 21.9245C24.4631 21.9584 24.5511 21.9877 24.6367 22.0228C24.8873 22.1255 25.0866 22.286 25.1921 22.5423C25.2754 22.7446 25.2754 22.9555 25.2261 23.1652C25.1493 23.4934 24.9331 23.7117 24.6519 23.8769C24.388 24.0319 24.1024 24.1222 23.7982 24.1374C23.5177 24.1515 23.2359 24.1463 22.9547 24.1494L22.7919 24.1503C22.521 24.1441 22.25 24.1372 21.9789 24.13L21.9542 24.1233ZM23.1222 22.8389H23.1249C23.1249 22.9777 23.123 23.1165 23.1256 23.2553C23.1272 23.3451 23.1241 23.4375 23.1435 23.524C23.1726 23.6533 23.2317 23.7699 23.3768 23.8071C23.5727 23.8575 23.7729 23.8676 23.9712 23.8332C24.2195 23.79 24.4175 23.6655 24.5262 23.4291C24.6068 23.2534 24.6188 23.0671 24.5911 22.8768C24.5544 22.6262 24.4213 22.4444 24.2001 22.3252C24.0549 22.247 23.9001 22.1991 23.7352 22.1928C23.5504 22.1858 23.3654 22.1854 23.1806 22.1797C23.1287 22.1782 23.1215 22.2046 23.1218 22.2472C23.1228 22.4442 23.1222 22.6414 23.1222 22.8389ZM23.5156 21.8949C23.6166 21.8899 23.7309 21.8884 23.8446 21.877C24.0623 21.8553 24.2157 21.7458 24.2956 21.5376C24.3363 21.4319 24.3346 21.3231 24.3357 21.2132C24.3389 20.9269 24.1718 20.6924 23.8999 20.5953C23.69 20.5205 23.4736 20.5192 23.2559 20.5251C23.1677 20.5274 23.1283 20.566 23.127 20.6548L23.114 21.8127C23.1133 21.8586 23.1331 21.8785 23.1779 21.8799L23.5156 21.8949Z" fill="#94795D"/>
<path fill-rule="evenodd" clip-rule="evenodd" d="M1.35348 23.9006L1.33809 24.0997C1.19465 24.0997 1.06239 24.0987 0.930133 24.1002C0.681016 24.1027 0.431899 24.1067 0.182571 24.1103L0.158524 24.1118C0.122876 24.1076 0.0581177 24.1076 0.0564302 24.097C0.0458834 24.0377 0.0492584 23.9755 0.0520006 23.9141C0.0522115 23.9072 0.0764693 23.8983 0.0906022 23.8949L0.284454 23.8517C0.405321 23.8203 0.44793 23.7682 0.453626 23.6433C0.460165 23.5026 0.466704 23.3617 0.467337 23.221C0.469235 22.8746 0.467126 22.5287 0.468602 22.1823C0.468813 22.1013 0.440758 22.041 0.365243 22.0081C0.275383 21.9684 0.185102 21.9296 0.094188 21.8929C0.0511568 21.8756 -0.00474169 21.8661 0.000320807 21.8083C0.00538331 21.7495 0.0595943 21.7341 0.110641 21.7225C0.322001 21.6742 0.533571 21.6271 0.744298 21.5757C0.812219 21.559 0.877188 21.531 0.958399 21.5027C0.962618 21.5466 0.970422 21.5883 0.969579 21.6301L0.957133 21.8286C0.956922 21.8509 0.968524 21.8809 0.985188 21.8933C0.995313 21.9011 1.02927 21.887 1.04615 21.8739C1.22629 21.7368 1.41698 21.6185 1.63445 21.5495C1.97132 21.4426 2.26052 21.5417 2.46302 21.8322C2.53431 21.9345 2.53452 21.9345 2.63345 21.863C2.80326 21.7396 2.98087 21.6307 3.17957 21.559C3.61579 21.4014 4.03492 21.6014 4.18659 22.0408C4.24185 22.2003 4.26295 22.365 4.26252 22.5333L4.25852 23.6509C4.25831 23.7431 4.28889 23.7956 4.37664 23.8243C4.47515 23.8565 4.57724 23.8787 4.6882 23.9078L4.66246 24.1C4.53632 24.1 4.42031 24.0991 4.30429 24.1002C4.02079 24.1027 3.73729 24.1042 3.454 24.1107C3.40464 24.112 3.39177 24.0997 3.38924 24.0536C3.38102 23.9057 3.37975 23.9059 3.51897 23.8726L3.5658 23.8605C3.70185 23.8234 3.7472 23.7817 3.74826 23.6437C3.75142 23.2476 3.75965 22.8504 3.73961 22.4551C3.71873 22.045 3.39325 21.8267 2.99584 21.9317C2.86612 21.9659 2.74863 22.0258 2.63936 22.1034C2.60245 22.1298 2.59548 22.1602 2.59844 22.2064C2.60962 22.381 2.61658 22.5559 2.61806 22.7308C2.62059 23.0368 2.61679 23.3429 2.61806 23.6492C2.61848 23.7732 2.66088 23.8207 2.78343 23.8494L2.96547 23.8913L2.99922 23.8989C3.00175 23.9572 3.00407 24.0154 3.00133 24.0736C2.99964 24.1101 2.97138 24.1132 2.93973 24.1126C2.76276 24.1082 2.58557 24.1023 2.40859 24.1027C2.19323 24.1031 1.97807 24.1092 1.76291 24.113H1.71229C1.71229 24.0512 1.70934 23.9922 1.7144 23.9333C1.71545 23.9192 1.74034 23.8994 1.75743 23.8949L1.96963 23.85C2.0597 23.8278 2.10274 23.7817 2.1078 23.6901C2.13184 23.2661 2.14914 22.8419 2.10927 22.4182C2.10147 22.3359 2.07468 22.2524 2.04051 22.1766C1.93188 21.9366 1.6874 21.8364 1.40538 21.9085C1.27143 21.9427 1.15056 22.0041 1.03623 22.0815C0.982235 22.1182 0.956501 22.1667 0.956501 22.2281C0.956501 22.651 0.957977 23.074 0.959243 23.4967L0.961563 23.6597C0.964094 23.7734 1.0124 23.8333 1.12525 23.8578C1.19781 23.8743 1.27122 23.8854 1.35348 23.9006Z" fill="#50382B"/>
<path fill-rule="evenodd" clip-rule="evenodd" d="M14.1065 21.546C14.1392 21.7051 14.1386 21.8481 14.0217 21.9565C13.9057 22.0643 13.7589 22.028 13.6157 22.004C13.629 22.0795 13.6437 22.1436 13.6509 22.2086C13.703 22.6914 13.4952 23.0498 13.0474 23.2546C12.8782 23.3318 12.6987 23.3605 12.5154 23.3753C12.4243 23.3824 12.3446 23.452 12.3359 23.5269C12.327 23.6029 12.3747 23.6809 12.4701 23.7037C12.5825 23.7305 12.6998 23.7381 12.8152 23.7514C13.0628 23.7796 13.3132 23.7925 13.5579 23.8368C13.9278 23.9034 14.1344 24.2264 14.0692 24.5981C14.0112 24.9288 13.8196 25.1695 13.5526 25.3541C13.1027 25.6658 12.6091 25.757 12.0834 25.5979C11.7828 25.5068 11.5708 25.3091 11.4976 24.9894C11.4609 24.8293 11.5 24.6843 11.6204 24.5757C11.7636 24.447 11.9195 24.3323 12.0695 24.2108L12.118 24.1621L12.0623 24.123C11.9094 24.0505 11.787 23.9511 11.7396 23.7786C11.7233 23.7201 11.7402 23.6818 11.7898 23.6518C11.8742 23.601 11.9581 23.5493 12.0414 23.4968C12.0807 23.4723 12.1195 23.447 12.156 23.4187C12.2058 23.3807 12.2013 23.3525 12.1418 23.3305C12.0035 23.2795 11.8805 23.2055 11.7851 23.0915C11.6259 22.9015 11.5807 22.6752 11.5938 22.4362C11.6143 22.0628 11.817 21.8169 12.1465 21.6586C12.5382 21.4707 12.9312 21.4589 13.3305 21.6302C13.4781 21.6935 13.6338 21.707 13.7922 21.696C13.9106 21.6875 14.0139 21.6428 14.1065 21.546ZM12.6631 24.2209C12.369 24.2184 12.2768 24.2547 12.1043 24.4304C11.9111 24.6274 11.9121 24.9005 12.1049 25.0984C12.2513 25.2484 12.434 25.3186 12.6371 25.3397C12.8744 25.3642 13.1081 25.3543 13.3237 25.2355C13.5536 25.1083 13.668 24.8721 13.6163 24.6341C13.5735 24.4378 13.4288 24.3479 13.2526 24.2962C13.0522 24.2376 12.8451 24.2264 12.6631 24.2209ZM12.0855 22.3419C12.0963 22.4235 12.1007 22.5062 12.1188 22.5861C12.1659 22.7933 12.256 22.9753 12.462 23.0675C12.704 23.1761 13.013 23.1295 13.1189 22.7899C13.1915 22.5572 13.1826 22.3263 13.0951 22.0993C13.056 21.998 12.9932 21.9124 12.9031 21.8495C12.693 21.7029 12.314 21.6835 12.1596 22.0075C12.1094 22.1128 12.0897 22.2248 12.0855 22.3419Z" fill="#4F382B"/>
<path fill-rule="evenodd" clip-rule="evenodd" d="M9.11794 21.4939C9.12574 21.53 9.14135 21.5709 9.14177 21.612C9.14241 21.6903 9.13397 21.7685 9.12954 21.8468V21.9147L9.19577 21.8641C9.37718 21.7148 9.57208 21.5876 9.79905 21.519C10.2087 21.3956 10.6179 21.6198 10.7514 22.0371C10.8021 22.1957 10.8221 22.3587 10.824 22.5245C10.8282 22.8928 10.8307 23.2611 10.8345 23.6294C10.8358 23.7617 10.851 23.7853 10.9761 23.8235C11.047 23.8452 11.1202 23.8604 11.1934 23.8718C11.2336 23.8781 11.2509 23.8939 11.2488 23.9334L11.2492 23.9697C11.2478 24.1222 11.2372 24.1291 11.0894 24.1287C10.7354 24.1281 10.3817 24.1302 10.0277 24.1332C9.92224 24.134 9.92203 24.1372 9.91148 24.033L9.90937 23.973C9.91591 23.8832 9.91802 23.884 10.0064 23.871C10.0659 23.8621 10.125 23.8484 10.183 23.8332C10.2427 23.8178 10.2713 23.7737 10.2794 23.7147C10.2834 23.6847 10.2886 23.6547 10.2884 23.6248C10.2834 23.2223 10.2899 22.8194 10.268 22.4176C10.2502 22.0925 10.0022 21.8989 9.67587 21.9211C9.51576 21.9322 9.37106 21.9856 9.23901 22.0778C9.1519 22.1387 9.13439 22.2267 9.13481 22.3214C9.1365 22.6977 9.14008 23.074 9.14409 23.4506C9.14494 23.533 9.14726 23.6155 9.15506 23.6974C9.16329 23.7868 9.19472 23.8229 9.28247 23.8423C9.36642 23.8608 9.45206 23.8716 9.54171 23.8866L9.5493 23.9558C9.55226 24.1171 9.53538 24.1291 9.37865 24.1285C9.01268 24.127 8.6467 24.1294 8.28094 24.1334C8.22335 24.1342 8.19888 24.1161 8.20036 24.06L8.19951 24.0359C8.19002 23.8906 8.19424 23.8851 8.33177 23.8615L8.39674 23.8484C8.54566 23.8148 8.58384 23.7752 8.58595 23.6239C8.59291 23.1449 8.59544 22.6661 8.6003 22.187C8.60093 22.1183 8.57498 22.0649 8.51086 22.0364C8.421 21.9968 8.3303 21.959 8.23938 21.9217C8.18918 21.901 8.1318 21.8879 8.12991 21.8185C8.12864 21.7696 8.18095 21.7264 8.25246 21.7118C8.39611 21.6827 8.54102 21.6584 8.68298 21.6228C8.82431 21.5876 8.96311 21.5403 9.11794 21.4939Z" fill="#4F372B"/>
<path fill-rule="evenodd" clip-rule="evenodd" d="M17.0315 22.7451C17.0248 23.1925 16.9086 23.5543 16.5921 23.8258C16.1914 24.1702 15.5661 24.2873 15.055 24.0297C14.8369 23.9198 14.6766 23.7513 14.5722 23.5326C14.4121 23.1961 14.372 22.8424 14.4556 22.48C14.5382 22.1216 14.7553 21.8619 15.0801 21.6938C15.4143 21.5211 15.7661 21.4536 16.1372 21.5443C16.6065 21.6588 16.9438 22.0414 17.0109 22.5287C17.0229 22.6141 17.0275 22.7006 17.0315 22.7451ZM16.4879 22.9875L16.4698 22.9854C16.4698 22.9432 16.4721 22.901 16.4694 22.8588C16.454 22.596 16.3949 22.3456 16.2426 22.1256C16.0981 21.9172 15.9013 21.7942 15.6452 21.7763C15.3586 21.756 15.1177 21.9163 15.0331 22.2091C14.9061 22.6487 14.9492 23.0771 15.1723 23.4798C15.2696 23.6553 15.4136 23.7848 15.6066 23.853C15.9849 23.9861 16.3202 23.8137 16.4188 23.4264C16.455 23.2834 16.4656 23.1339 16.4879 22.9875Z" fill="#4F382B"/>
<path fill-rule="evenodd" clip-rule="evenodd" d="M7.73973 22.7798C7.73192 23.1008 7.6562 23.3976 7.45792 23.6556C7.2455 23.9319 6.95356 24.0796 6.62155 24.1418C6.22899 24.2152 5.86027 24.1486 5.54492 23.8851C5.39516 23.7598 5.29285 23.5993 5.22535 23.4166C5.11461 23.1171 5.08698 22.8102 5.15511 22.4973C5.22788 22.1626 5.41688 21.9067 5.70988 21.735C6.04864 21.537 6.4142 21.4486 6.80464 21.5376C7.30667 21.6523 7.5965 21.9795 7.70366 22.4748C7.72517 22.5748 7.72813 22.6781 7.73973 22.7798ZM7.19002 22.9916L7.17547 22.9895V22.9291C7.16724 22.6347 7.10966 22.3541 6.93395 22.1094C6.8038 21.9278 6.62956 21.8139 6.40618 21.7821C6.0421 21.7302 5.80416 21.9462 5.72527 22.2396C5.62234 22.6229 5.65461 23.0015 5.81387 23.3649C5.91322 23.5915 6.07016 23.768 6.31126 23.8537C6.68715 23.9872 7.0276 23.8104 7.12274 23.4246C7.15775 23.2835 7.1683 23.1363 7.19002 22.9916Z" fill="#4F372B"/>
<path fill-rule="evenodd" clip-rule="evenodd" d="M16.5027 6.41309C16.7615 7.16128 16.9476 7.92509 17.009 8.71652C17.0849 9.69865 17.0503 10.674 16.8432 11.6399L16.8166 11.7171C16.7516 11.7173 16.6854 11.7091 16.6219 11.719C16.0855 11.8034 15.5497 11.8907 15.0137 11.9776C14.4596 12.0675 13.905 12.1537 13.3519 12.2495C13.156 12.2833 12.9134 12.243 12.8343 12.5138L12.7963 12.5267L12.8231 10.9071L12.7959 6.99928L13.0541 6.95498C13.4762 6.88601 13.8983 6.81577 14.321 6.74848C14.8251 6.66853 15.3297 6.59048 15.8342 6.51244C16.057 6.47827 16.28 6.44641 16.5027 6.41309Z" fill="#439934"/>
<path fill-rule="evenodd" clip-rule="evenodd" d="M12.2642 17.2484C11.9918 17.0143 11.71 16.7905 11.4491 16.5441C10.0447 15.2194 9.01721 13.6599 8.51117 11.7798C8.37174 11.2626 8.27892 10.7368 8.24897 10.2022C8.22788 9.82804 8.19771 9.45067 8.22429 9.07837C8.29453 8.08844 8.43776 7.108 8.72801 6.15435L8.74404 6.1322C8.77231 6.16975 8.81281 6.20308 8.82715 6.24548C9.11065 7.07994 9.39183 7.91526 9.67174 8.7512C10.5511 11.3776 11.4295 14.0046 12.3104 16.6306C12.3277 16.6818 12.3722 16.7238 12.4042 16.77L12.2642 17.2484Z" fill="#45A538"/>
<path fill-rule="evenodd" clip-rule="evenodd" d="M16.5029 6.4131C16.28 6.44622 16.057 6.47828 15.8345 6.51245C15.3299 6.5905 14.8253 6.66854 14.3212 6.74849C13.8987 6.81557 13.4766 6.88581 13.0543 6.955L12.7961 6.9993L12.794 6.83097C12.7854 6.69259 12.771 6.55422 12.7691 6.41584L12.7402 3.76773C12.7335 3.21529 12.7233 2.66284 12.7122 2.11061C12.7052 1.76741 12.6978 1.42401 12.6824 1.08123C12.674 0.897084 12.6442 0.713779 12.6324 0.529631C12.6255 0.42374 12.6347 0.317006 12.6371 0.210693C12.7687 0.465717 12.8976 0.722639 13.0328 0.975764C13.2465 1.37591 13.5871 1.6708 13.894 1.99248C15.1061 3.26465 15.9665 4.7429 16.5029 6.4131Z" fill="#46A037"/>
<path fill-rule="evenodd" clip-rule="evenodd" d="M12.7967 12.5267L12.8346 12.5138C12.9138 12.243 13.1563 12.2833 13.3523 12.2495C13.9054 12.1538 14.4599 12.0675 15.0141 11.9776C15.55 11.8909 16.0858 11.8036 16.6222 11.719C16.6857 11.7091 16.752 11.7173 16.8169 11.7171C16.7167 12.0749 16.6379 12.4404 16.5107 12.7883C16.3662 13.1827 16.1915 13.5679 16.0061 13.9455C15.7289 14.5097 15.3836 15.0362 14.9824 15.5186C14.6732 15.8903 14.3285 16.2343 13.9832 16.5737C13.7921 16.7613 13.5672 16.9142 13.3576 17.0829L13.3031 17.0458L13.1076 16.8788L12.9053 16.4349C12.7659 15.9156 12.6929 15.387 12.6807 14.8495L12.6845 14.7593L12.7121 14.3682C12.7212 14.2347 12.7334 14.1013 12.7391 13.9678C12.7593 13.4877 12.7775 13.0072 12.7967 12.5267Z" fill="#409433"/>
<path fill-rule="evenodd" clip-rule="evenodd" d="M12.7973 12.5267C12.7783 13.0072 12.7602 13.4879 12.7397 13.9685C12.734 14.1022 12.722 14.2355 12.7127 14.3688L12.5895 14.4154C12.3157 13.6094 12.0417 12.8119 11.7738 12.0124C11.3307 10.6896 10.893 9.36495 10.4504 8.04174C10.0933 6.97398 9.73302 5.90684 9.37084 4.84055C9.35375 4.79077 9.30523 4.75154 9.27148 4.70745L10.0604 3.25684C10.0876 3.30387 10.1232 3.34796 10.1403 3.39859C10.5053 4.47859 10.8695 5.5588 11.2307 6.64006C11.7006 8.04702 12.1674 9.4546 12.637 10.8618C12.6558 10.9179 12.6866 10.9698 12.7161 11.0328L12.8241 10.9071C12.815 11.4471 12.8062 11.9867 12.7973 12.5267Z" fill="#4FAA41"/>
<path fill-rule="evenodd" clip-rule="evenodd" d="M9.27051 4.70752C9.30447 4.75161 9.35298 4.79084 9.36986 4.84062C9.73204 5.90691 10.0923 6.97383 10.4494 8.04181C10.892 9.36502 11.3297 10.6897 11.7729 12.0125C12.0408 12.8119 12.3148 13.6093 12.5886 14.4155L12.7117 14.3689L12.6841 14.76L12.659 14.85C12.6162 15.278 12.5801 15.7069 12.5278 16.134C12.5016 16.3481 12.4458 16.5582 12.4034 16.77C12.3715 16.7238 12.3268 16.6818 12.3095 16.6306C11.4284 14.0046 10.5503 11.3776 9.67087 8.75119C9.39095 7.91525 9.10956 7.07993 8.82627 6.24546C8.81193 6.20307 8.77143 6.16974 8.74316 6.13219L9.27051 4.70752Z" fill="#4AA73C"/>
<path fill-rule="evenodd" clip-rule="evenodd" d="M12.8233 10.9073L12.7153 11.033C12.6857 10.9699 12.6549 10.918 12.6362 10.8619C12.1666 9.45474 11.6998 8.04716 11.2299 6.6402C10.8687 5.55894 10.5044 4.47873 10.1395 3.39873C10.1224 3.3481 10.0868 3.30402 10.0596 3.25698L11.0352 1.97363C11.066 2.01455 11.1098 2.05105 11.1256 2.09724C11.3965 2.89037 11.6648 3.68412 11.9319 4.47852C12.1812 5.22059 12.4267 5.96352 12.679 6.70433C12.6959 6.7539 12.7547 6.78891 12.794 6.8311L12.7961 6.99943L12.8233 10.9073Z" fill="#57AE47"/>
<path fill-rule="evenodd" clip-rule="evenodd" d="M12.794 6.831C12.7545 6.78902 12.6959 6.75401 12.679 6.70423C12.4269 5.96341 12.1812 5.22049 11.9319 4.47841C11.6648 3.68402 11.3965 2.89027 11.1256 2.09714C11.1098 2.05095 11.066 2.01445 11.0352 1.97353C11.3524 1.66282 11.6597 1.34093 11.9899 1.04456C12.2833 0.781313 12.5191 0.499078 12.5301 0.0828984L12.5533 0L12.6368 0.210516C12.6347 0.316828 12.6252 0.423562 12.6322 0.529453C12.6442 0.713602 12.6739 0.896906 12.6822 1.08105C12.6976 1.42383 12.7049 1.76723 12.7119 2.11043C12.7231 2.66266 12.7332 3.21511 12.74 3.76755L12.7689 6.41566C12.771 6.55425 12.7855 6.69263 12.794 6.831Z" fill="#60B24F"/>
<path fill-rule="evenodd" clip-rule="evenodd" d="M12.4039 16.7698C12.4463 16.558 12.5022 16.3479 12.5284 16.1338C12.5807 15.7069 12.6168 15.2778 12.6596 14.8498L12.6704 14.8481L12.6809 14.85C12.6931 15.3875 12.7661 15.9161 12.9056 16.4354C12.8771 16.473 12.8372 16.5061 12.822 16.5483C12.705 16.8786 12.5944 17.2117 12.4767 17.5418C12.4607 17.587 12.4155 17.6222 12.3841 17.6616L12.2637 17.2482L12.4039 16.7698Z" fill="#A9AA88"/>
<path fill-rule="evenodd" clip-rule="evenodd" d="M12.3838 17.6617C12.4152 17.6221 12.4604 17.5871 12.4764 17.5419C12.5941 17.2118 12.7046 16.8787 12.8217 16.5484C12.8367 16.5062 12.8768 16.4731 12.9052 16.4355L13.1075 16.8794C13.0676 16.9359 13.0124 16.9871 12.9902 17.0502L12.603 18.1876C12.5869 18.2334 12.5327 18.2654 12.496 18.304L12.3838 17.6617Z" fill="#B6B598"/>
<path fill-rule="evenodd" clip-rule="evenodd" d="M12.4961 18.3038C12.5326 18.2652 12.587 18.2332 12.603 18.1874L12.9903 17.05C13.0123 16.9869 13.0677 16.9357 13.1076 16.8792L13.3034 17.046C13.2089 17.1394 13.1563 17.2474 13.188 17.3839L13.1285 17.5786C13.1015 17.6119 13.0622 17.6411 13.049 17.6792C12.9137 18.0665 12.7849 18.4559 12.6486 18.843C12.6313 18.8919 12.5834 18.9305 12.5499 18.974L12.4961 18.3038Z" fill="#C2C1A7"/>
<path fill-rule="evenodd" clip-rule="evenodd" d="M12.5504 18.9738C12.5842 18.9304 12.632 18.8918 12.6491 18.8429C12.7854 18.4558 12.9145 18.0664 13.0495 17.6791C13.0628 17.6409 13.102 17.612 13.129 17.5785L13.0469 18.472C13.025 18.4973 12.9934 18.5195 12.9828 18.5488L12.7099 19.331C12.6907 19.3843 12.654 19.432 12.6253 19.482C12.5998 19.4487 12.5542 19.4164 12.5521 19.3818C12.5441 19.2464 12.5498 19.1099 12.5504 18.9738Z" fill="#CECDB7"/>
<path fill-rule="evenodd" clip-rule="evenodd" d="M12.625 19.4821C12.6537 19.4321 12.6904 19.3845 12.7096 19.3311L12.9825 18.549C12.9931 18.5194 13.0249 18.4975 13.0467 18.4722L13.0488 19.0586L12.8524 19.5621L12.625 19.4821Z" fill="#DBDAC7"/>
<path fill-rule="evenodd" clip-rule="evenodd" d="M12.8525 19.5621L13.0489 19.0586L13.0894 19.6543L12.8525 19.5621Z" fill="#EBE9DC"/>
<path fill-rule="evenodd" clip-rule="evenodd" d="M13.1879 17.3841C13.1564 17.2478 13.2087 17.1398 13.3032 17.0461L13.3577 17.0833L13.1879 17.3841Z" fill="#CECDB7"/>
<path fill-rule="evenodd" clip-rule="evenodd" d="M12.6805 14.8503L12.6699 14.8484L12.6592 14.8501L12.6843 14.76L12.6805 14.8503Z" fill="#4FAA41"/>
</svg>
