<svg width="45" height="28" viewBox="0 0 45 28" fill="none" xmlns="http://www.w3.org/2000/svg">
<path d="M22.2557 27.6535C22.1031 27.6535 21.9607 27.6127 21.8285 27.5412L20.4757 26.7348C20.2722 26.6225 20.3739 26.5817 20.435 26.5613C20.7096 26.4694 20.7605 26.4489 21.0453 26.2857C21.0758 26.2652 21.1165 26.2755 21.147 26.2959L22.1845 26.9186C22.2252 26.939 22.2761 26.939 22.3065 26.9186L26.3651 24.5605C26.4058 24.5401 26.4262 24.4992 26.4262 24.4482V19.7424C26.4262 19.6912 26.4058 19.6505 26.3651 19.63L22.3065 17.2822C22.2659 17.2617 22.215 17.2617 22.1845 17.2822L18.126 19.63C18.0853 19.6504 18.0649 19.7015 18.0649 19.7423V24.4482C18.0649 24.489 18.0853 24.54 18.126 24.5605L19.2347 25.2036C19.8349 25.5098 20.2112 25.1525 20.2112 24.7953V20.1506C20.2112 20.0894 20.2621 20.0281 20.3333 20.0281H20.852C20.9131 20.0281 20.9741 20.0792 20.9741 20.1506V24.7953C20.9741 25.6017 20.5366 26.0713 19.7738 26.0713C19.5398 26.0713 19.3568 26.0713 18.838 25.816L17.77 25.2036C17.5055 25.0505 17.3428 24.7646 17.3428 24.4584V19.7525C17.3428 19.4463 17.5055 19.1604 17.77 19.0073L21.8285 16.6493C22.0828 16.5064 22.4287 16.5064 22.6829 16.6493L26.7414 19.0073C27.0059 19.1604 27.1687 19.4463 27.1687 19.7525V24.4584C27.1687 24.7646 27.0059 25.0505 26.7414 25.2036L22.6829 27.5616C22.5507 27.6229 22.3981 27.6535 22.2557 27.6535ZM23.5068 24.4176C21.7268 24.4176 21.3606 23.601 21.3606 22.9068C21.3606 22.8455 21.4115 22.7843 21.4827 22.7843H22.0116C22.0726 22.7843 22.1235 22.8251 22.1235 22.8864C22.2049 23.4274 22.4388 23.6928 23.517 23.6928C24.3714 23.6928 24.7377 23.4989 24.7377 23.0395C24.7377 22.7741 24.6359 22.5802 23.3034 22.4475C22.1947 22.3351 21.503 22.0902 21.503 21.2021C21.503 20.3752 22.1947 19.8852 23.3543 19.8852C24.6562 19.8852 25.2971 20.3344 25.3785 21.3143C25.3785 21.345 25.3683 21.3756 25.348 21.4062C25.3275 21.4266 25.2971 21.447 25.2666 21.447H24.7376C24.6867 21.447 24.6359 21.4062 24.6258 21.3552C24.5037 20.7938 24.1883 20.61 23.3543 20.61C22.4185 20.61 22.3065 20.9367 22.3065 21.1816C22.3065 21.4777 22.4388 21.5695 23.7001 21.7328C24.9512 21.8962 25.5412 22.131 25.5412 23.0088C25.531 23.9072 24.7987 24.4176 23.5068 24.4176Z" fill="#539E43"/>
<path d="M9.66321 9.24853C9.66321 9.06482 9.56147 8.89118 9.39874 8.79932L5.08591 6.3086C5.01462 6.26771 4.9333 6.24731 4.85198 6.23706H4.81123C4.72991 6.23706 4.6485 6.26771 4.5773 6.3086L0.264469 8.79932C0.101651 8.89118 0 9.06473 0 9.24853L0.0102091 15.9449C0.0102091 16.0368 0.0610788 16.1287 0.1424 16.1695C0.223809 16.2206 0.32546 16.2206 0.396748 16.1695L2.96003 14.6996C3.12276 14.6077 3.2245 14.4342 3.2245 14.2505V11.1166C3.2245 10.9329 3.32615 10.7593 3.48897 10.6674L4.5773 10.0345C4.65871 9.98347 4.75024 9.96298 4.84177 9.96298C4.9333 9.96298 5.02483 9.98347 5.09612 10.0345L6.18444 10.6674C6.34726 10.7593 6.44891 10.9328 6.44891 11.1166V14.2505C6.44891 14.4342 6.55065 14.6077 6.71338 14.6996L9.27667 16.1695C9.35808 16.2206 9.45973 16.2206 9.54114 16.1695C9.62255 16.1287 9.67341 16.0368 9.67341 15.9449L9.66321 9.24853ZM30.3933 0.0306703C30.312 -0.0102234 30.2102 -0.0102234 30.1389 0.0306703C30.0576 0.0817211 30.0067 0.163332 30.0067 0.255188V6.89048C30.0067 6.95168 29.9763 7.01289 29.9152 7.05379C29.8542 7.08435 29.7931 7.08435 29.7322 7.05379L28.654 6.43111C28.5749 6.38594 28.4855 6.36219 28.3945 6.36219C28.3036 6.36219 28.2142 6.38594 28.1351 6.43111L23.8223 8.93207C23.6596 9.02392 23.5578 9.19748 23.5578 9.38119V14.3729C23.5578 14.5566 23.6596 14.7302 23.8223 14.8221L28.1351 17.323C28.2142 17.3682 28.3036 17.392 28.3945 17.392C28.4855 17.392 28.5749 17.3682 28.654 17.323L32.9668 14.8221C33.1295 14.7302 33.2312 14.5567 33.2312 14.3729V1.92936C33.2312 1.7354 33.1295 1.56193 32.9668 1.46999L30.3933 0.0306703ZM29.9966 12.7294C29.9966 12.7805 29.9763 12.8213 29.9355 12.8417L28.4607 13.6991C28.4401 13.7092 28.4175 13.7145 28.3945 13.7145C28.3716 13.7145 28.349 13.7092 28.3284 13.6991L26.8535 12.8417C26.8128 12.8213 26.7925 12.7702 26.7925 12.7294V11.0145C26.7925 10.9634 26.8128 10.9226 26.8535 10.9022L28.3284 10.0447C28.349 10.0346 28.3716 10.0294 28.3945 10.0294C28.4175 10.0294 28.4401 10.0346 28.4607 10.0447L29.9355 10.9022C29.9763 10.9225 29.9966 10.9737 29.9966 11.0145V12.7294ZM44.7457 10.9737C44.9085 10.8818 45 10.7083 45 10.5244V9.30974C45 9.12603 44.8983 8.95247 44.7457 8.86061L40.4634 6.3699C40.3843 6.32475 40.2949 6.301 40.204 6.301C40.1131 6.301 40.0237 6.32475 39.9446 6.3699L35.6318 8.87077C35.469 8.96263 35.3673 9.13618 35.3673 9.31999V14.3117C35.3673 14.4954 35.469 14.6689 35.6318 14.7608L39.9141 17.2107C40.0769 17.3026 40.2701 17.3026 40.4227 17.2107L43.0164 15.7613C43.0978 15.7204 43.1487 15.6286 43.1487 15.5367C43.1487 15.4449 43.0978 15.353 43.0164 15.3121L38.6833 12.8111C38.602 12.7602 38.5511 12.6785 38.5511 12.5866V11.0248C38.5511 10.9329 38.602 10.8411 38.6833 10.8002L40.0362 10.0244C40.0758 9.99935 40.1216 9.98608 40.1684 9.98608C40.2152 9.98608 40.261 9.99935 40.3006 10.0244L41.6534 10.8002C41.7348 10.8512 41.7857 10.9329 41.7857 11.0248V12.2498C41.7857 12.3416 41.8366 12.4335 41.9179 12.4743C41.9993 12.5253 42.101 12.5253 42.1824 12.4743L44.7457 10.9737Z" fill="#333333"/>
<path d="M40.1385 10.7389C40.1536 10.7289 40.1712 10.7236 40.1893 10.7236C40.2074 10.7236 40.2251 10.7289 40.2401 10.7389L41.0641 11.2187C41.0946 11.239 41.115 11.2697 41.115 11.3105V12.2701C41.115 12.3109 41.0946 12.3415 41.0641 12.3619L40.2401 12.8417C40.2251 12.8517 40.2074 12.857 40.1893 12.857C40.1712 12.857 40.1536 12.8517 40.1385 12.8417L39.3145 12.3619C39.284 12.3415 39.2637 12.3109 39.2637 12.2701V11.3105C39.2637 11.2697 39.284 11.239 39.3145 11.2187L40.1385 10.7389Z" fill="#539E43"/>
<path d="M16.8747 6.39031C16.7957 6.34515 16.7063 6.32141 16.6153 6.32141C16.5244 6.32141 16.435 6.34515 16.356 6.39031L12.0737 8.87069C11.9109 8.96254 11.8193 9.1361 11.8193 9.31981V14.2912C11.8193 14.4749 11.9211 14.6484 12.0737 14.7403L16.356 17.2209C16.435 17.266 16.5244 17.2898 16.6153 17.2898C16.7063 17.2898 16.7957 17.266 16.8747 17.2209L21.1571 14.7403C21.3198 14.6484 21.4114 14.4749 21.4114 14.2912V9.3199C21.4114 9.13619 21.3096 8.96263 21.1571 8.87078L16.8747 6.39031Z" fill="url(#paint0_linear_1244_1895)"/>
<defs>
<linearGradient id="paint0_linear_1244_1895" x1="665.885" y1="198.125" x2="194.125" y2="936.768" gradientUnits="userSpaceOnUse">
<stop stop-color="#41873F"/>
<stop offset="0.3288" stop-color="#418B3D"/>
<stop offset="0.6352" stop-color="#419637"/>
<stop offset="0.9319" stop-color="#3FA92D"/>
<stop offset="1" stop-color="#3FAE2A"/>
</linearGradient>
</defs>
</svg>
