<svg width="27" height="27" viewBox="0 0 27 27" fill="none" xmlns="http://www.w3.org/2000/svg">
<path d="M23.286 19.9658C25.1602 19.9658 25.8532 18.6586 26.5046 16.6988C27.1796 14.6806 27.1503 12.7388 26.5046 10.1536C26.04 8.29172 25.1613 6.8866 23.286 6.8866H20.8706V9.74522C20.8706 11.9626 18.9896 13.8312 16.8453 13.8312H10.4081C8.64745 13.8312 7.18945 15.3376 7.18945 17.1038V23.2396C7.18945 24.9867 8.7082 26.0116 10.4081 26.5122C12.4443 27.1085 14.4041 27.2165 16.8442 26.5122C18.4653 26.042 20.0628 25.0947 20.0628 23.2396V20.786H13.6312V19.967H23.286V19.9658ZM17.2481 22.4195C17.9163 22.4195 18.4597 22.9685 18.4597 23.6435C18.4597 24.3252 17.9175 24.8731 17.2481 24.8731C16.9248 24.8692 16.6161 24.7379 16.3892 24.5076C16.1623 24.2773 16.0355 23.9668 16.0365 23.6435C16.0364 23.321 16.1637 23.0115 16.3906 22.7823C16.6174 22.5531 16.9256 22.4227 17.2481 22.4195Z" fill="#F2BB30"/>
<path d="M3.87412 19.9669H6.08587V17.025C6.08587 14.8976 7.92412 13.0223 10.1111 13.0223H16.5472C18.3371 13.0223 19.7659 11.5463 19.7659 9.74963V3.60938C19.7659 1.86225 18.2955 0.552754 16.5472 0.259129C14.3895 -0.0974961 12.045 -0.0772461 10.1111 0.265879L10.1122 0.264754C7.3875 0.746254 6.89475 1.752 6.89475 3.61388V6.0675H13.3376V6.88763H4.47712C2.60287 6.88763 0.962622 8.01488 0.451872 10.1546C-0.138753 12.6083 -0.162378 14.1383 0.451872 16.6999C0.908622 18.6045 2.001 19.9669 3.87412 19.9669ZM9.70837 4.42838C9.38553 4.4263 9.07668 4.29628 8.84955 4.06683C8.62242 3.83738 8.49555 3.52723 8.49675 3.20438C8.49554 2.881 8.62223 2.57026 8.84921 2.33992C9.07618 2.10958 9.38501 1.97831 9.70837 1.97475C10.3721 1.97475 10.92 2.52825 10.92 3.20438C10.92 3.8805 10.3777 4.42838 9.70837 4.42838Z" fill="#35668F"/>
</svg>
