<svg width="24" height="26" viewBox="0 0 24 26" fill="none" xmlns="http://www.w3.org/2000/svg">
<path d="M11.8195 11.4536C13.012 11.4536 13.9788 10.5818 13.9788 9.50629C13.9788 8.43081 13.012 7.55896 11.8195 7.55896C10.6269 7.55896 9.66016 8.43081 9.66016 9.50629C9.66016 10.5818 10.6269 11.4536 11.8195 11.4536Z" fill="#61DAFB"/>
<path d="M11.8182 16.6674C13.5131 18.1541 15.1849 19.0335 16.5315 19.0335C16.9727 19.0335 17.3906 18.9498 17.7389 18.7613C18.9462 18.1332 19.3874 16.5627 18.9695 14.3223C18.8998 13.9244 18.8069 13.5266 18.6908 13.1078C19.1552 12.9822 19.5731 12.8565 19.9911 12.7309C22.3361 11.9143 23.6364 10.7836 23.6364 9.54818C23.6364 8.29184 22.3361 7.16113 19.9911 6.36545C19.5731 6.21888 19.1552 6.09325 18.6908 5.98855C18.8069 5.56977 18.8998 5.17193 18.9695 4.77409C19.3642 2.49174 18.923 0.900377 17.7157 0.272207C17.3674 0.083756 16.9495 0 16.5083 0C15.1849 0 13.4899 0.879438 11.795 2.36611C10.1232 0.879438 8.45151 0 7.10484 0C6.66369 0 6.24576 0.083756 5.89748 0.272207C4.69012 0.900377 4.24897 2.4708 4.6669 4.71127C4.73656 5.10911 4.82943 5.50695 4.94553 5.92573C4.48116 6.05137 4.06323 6.177 3.64529 6.30264C1.30023 7.11926 0 8.24996 0 9.48536C0 10.7417 1.30023 11.8724 3.64529 12.6681C4.06323 12.8147 4.48116 12.9403 4.94553 13.045C4.82943 13.4638 4.73656 13.8616 4.6669 14.2595C4.27219 16.4999 4.71334 18.0913 5.89748 18.6985C6.24576 18.887 6.66369 18.9707 7.10484 18.9707C8.45151 19.0126 10.1232 18.1332 11.8182 16.6674ZM10.518 13.8407C10.9359 13.8616 11.377 13.8616 11.8182 13.8616C12.2593 13.8616 12.7005 13.8616 13.1184 13.8407C12.7005 14.3432 12.2593 14.8039 11.8182 15.2436C11.377 14.8039 10.9359 14.3432 10.518 13.8407ZM7.63886 11.684C7.87105 12.0399 8.08002 12.3749 8.33542 12.71C7.61565 12.6262 6.94231 12.5215 6.2922 12.3959C6.50116 11.8305 6.73335 11.2442 7.01197 10.6579C7.19771 10.993 7.40668 11.3489 7.63886 11.684ZM6.2922 6.63766C6.94231 6.51203 7.61565 6.40733 8.33542 6.32358C8.10323 6.6586 7.87105 6.99362 7.63886 7.34959C7.40668 7.70555 7.19771 8.04057 7.01197 8.39654C6.71013 7.78931 6.47794 7.20301 6.2922 6.63766ZM7.56921 9.5063C7.87105 8.94095 8.19611 8.3756 8.5676 7.81024C8.91588 7.26583 9.31059 6.72142 9.70531 6.177C10.4019 6.13512 11.0984 6.11419 11.8182 6.11419C12.5612 6.11419 13.2577 6.13512 13.9311 6.177C14.349 6.72142 14.7205 7.26583 15.0688 7.81024C15.4403 8.3756 15.7653 8.94095 16.0672 9.5063C15.7653 10.0717 15.4403 10.637 15.0688 11.2024C14.7205 11.7468 14.3258 12.2912 13.9311 12.8356C13.2345 12.8775 12.538 12.8984 11.8182 12.8984C11.0752 12.8984 10.3786 12.8775 9.70531 12.8356C9.28737 12.2912 8.91588 11.7468 8.5676 11.2024C8.19611 10.637 7.87105 10.0717 7.56921 9.5063ZM16.6476 8.3756L16.0207 7.32865C15.7885 6.97268 15.5796 6.63766 15.3242 6.30264C16.0439 6.38639 16.7173 6.49109 17.3674 6.61672C17.1584 7.20301 16.9262 7.7893 16.6476 8.3756ZM16.6476 10.637C16.9262 11.2233 17.1584 11.8096 17.3674 12.3749C16.7173 12.5006 16.0439 12.6053 15.3242 12.689C15.5563 12.354 15.7885 12.019 16.0207 11.663C16.2297 11.3489 16.4387 10.993 16.6476 10.637ZM17.1816 17.9028C16.9959 18.0075 16.7637 18.0494 16.5083 18.0494C15.3706 18.0494 13.9543 17.2119 12.5612 15.9555C13.2345 15.3064 13.8846 14.5735 14.5347 13.7569C15.626 13.6732 16.6708 13.5266 17.646 13.3172C17.7621 13.6941 17.8318 14.071 17.9014 14.4479C18.2265 16.2277 17.9711 17.505 17.1816 17.9028ZM18.389 6.86799C20.9895 7.53804 22.5451 8.56405 22.5451 9.5063C22.5451 10.3229 21.4771 11.1395 19.5964 11.7887C19.2249 11.9143 18.8069 12.0399 18.389 12.1446C18.0872 11.2861 17.7157 10.4067 17.2513 9.5063C17.7157 8.60593 18.1104 7.72649 18.389 6.86799ZM16.5315 0.963194C16.7869 0.963194 16.9959 1.00507 17.2049 1.10977C17.9711 1.50761 18.2497 2.76395 17.9246 4.5647C17.855 4.92066 17.7621 5.29756 17.6692 5.69541C16.6941 5.50695 15.6492 5.36038 14.558 5.25569C13.9311 4.43907 13.2577 3.7062 12.5844 3.05709C13.9775 1.82169 15.3938 0.963194 16.5315 0.963194ZM13.1184 5.17193C12.7005 5.15099 12.2593 5.15099 11.8182 5.15099C11.377 5.15099 10.9359 5.15099 10.518 5.17193C10.9359 4.66939 11.377 4.20874 11.8182 3.76902C12.2593 4.20874 12.7005 4.69033 13.1184 5.17193ZM6.45472 1.10977C6.64047 1.00507 6.87266 0.963194 7.12806 0.963194C8.26576 0.963194 9.68209 1.80075 11.0752 3.05709C10.4019 3.7062 9.75174 4.43907 9.10162 5.25569C8.01036 5.33944 6.96553 5.48602 5.99036 5.69541C5.87426 5.3185 5.80461 4.9416 5.73495 4.5647C5.40989 2.78489 5.6653 1.52855 6.45472 1.10977ZM5.24737 12.1446C2.6469 11.4746 1.09127 10.4486 1.09127 9.5063C1.09127 8.68968 2.15931 7.87306 4.04001 7.22395C4.4115 7.09832 4.82943 6.97268 5.24737 6.86799C5.54921 7.72649 5.9207 8.60593 6.38507 9.5063C5.9207 10.4067 5.52599 11.3071 5.24737 12.1446ZM5.73495 14.4479C5.80461 14.0919 5.89748 13.715 5.99036 13.3172C6.96553 13.5056 8.01036 13.6522 9.10162 13.7569C9.72852 14.5735 10.4019 15.3064 11.0752 15.9555C9.68209 17.1909 8.26576 18.0494 7.12806 18.0494C6.87266 18.0494 6.66369 18.0075 6.45472 17.9028C5.6653 17.505 5.40989 16.2277 5.73495 14.4479ZM4.75978 23.0748C5.27058 22.5094 5.2938 21.8812 5.01518 21.2531C4.73656 20.6249 4.1561 20.3318 3.43633 20.3108C2.57725 20.2899 1.69495 20.3108 0.835864 20.3108H0.673334V25.734H1.36989V23.682H2.46115C2.60046 23.682 2.71656 23.7239 2.78621 23.8286L4.17932 25.7759C4.20254 25.8178 4.27219 25.8806 4.31863 25.8806H5.22415C4.6669 25.1059 4.13288 24.373 3.57564 23.6192C4.06323 23.5564 4.48116 23.4098 4.75978 23.0748ZM1.36989 23.0329V20.9599H1.62529C2.15931 20.9599 2.71656 20.939 3.25058 20.9809C3.87748 21.0018 4.31863 21.4415 4.31863 22.0069C4.31863 22.5722 3.80782 23.012 3.18092 23.0329C2.62368 23.0538 2.06644 23.0329 1.36989 23.0329ZM10.3554 23.3051C9.98393 21.8394 8.49795 21.4625 7.36024 21.9231C6.47794 22.2791 6.08323 22.9701 6.06001 23.8286C6.03679 24.4777 6.24576 25.064 6.803 25.5037C7.4299 26.0062 8.19611 26.069 8.98553 25.9434C9.42668 25.8597 9.8214 25.6712 10.1232 25.3781C10.0071 25.2315 9.89105 25.0849 9.77496 24.9593C9.12484 25.4618 8.40507 25.6293 7.61565 25.2943C7.10484 25.064 6.84944 24.4986 6.803 24.0798H10.4019V23.8076C10.4251 23.6192 10.4019 23.4517 10.3554 23.3051ZM6.84944 23.6401C6.77978 23.012 7.47634 22.3419 8.24254 22.3419C9.12484 22.321 9.68209 22.8026 9.70531 23.6401H6.84944ZM13.9775 21.8184C13.6292 21.7556 13.2577 21.7347 12.9094 21.7556C12.3522 21.7975 11.8646 22.0278 11.4699 22.4047C11.586 22.5513 11.6789 22.6979 11.8182 22.8654C11.8646 22.8235 11.9111 22.7816 11.9575 22.7607C12.329 22.4466 12.7701 22.2791 13.3042 22.321C13.7221 22.3419 14.1168 22.4675 14.2329 22.8444C14.3258 23.1376 14.3026 23.4517 14.3258 23.7658C14.2561 23.7658 14.2329 23.7448 14.2097 23.7239C13.6524 23.3051 13.0255 23.2213 12.3522 23.3679C11.7253 23.5145 11.3306 23.9542 11.2842 24.5196C11.2377 25.1687 11.5628 25.6503 12.1897 25.8806C12.5844 26.0272 13.0255 26.0272 13.4435 25.9434C13.7685 25.8806 13.9078 25.7131 14.3722 25.4828V25.755H15.0223C15.0223 24.9174 15.0455 23.8914 15.0223 22.9282C15.0223 22.321 14.6276 21.9441 13.9775 21.8184ZM14.3026 24.4567C14.2793 24.5196 14.3026 24.5824 14.3026 24.6452C14.3026 25.0849 14.1865 25.2315 13.7221 25.399C13.397 25.5037 13.0488 25.5456 12.7005 25.4409C12.3058 25.3362 12.0271 25.0221 12.0271 24.6661C12.0039 24.3102 12.2593 23.9542 12.654 23.8495C13.1881 23.682 13.6757 23.7867 14.1168 24.0798C14.2561 24.1845 14.349 24.2892 14.3026 24.4567ZM17.9246 22.3838C18.5283 22.2163 19.0856 22.321 19.5035 22.7816L19.5731 22.8235C19.7357 22.6979 19.875 22.5722 20.0607 22.4257C19.9911 22.3628 19.9679 22.321 19.9214 22.2581C19.2481 21.609 17.9246 21.5253 17.112 22.0488C15.9743 22.8026 15.9975 24.2683 16.5547 25.043C17.0888 25.7759 17.855 26.0272 18.7605 25.9225C19.2945 25.8597 19.7357 25.6293 20.0839 25.2315C19.9214 25.1059 19.7589 24.9802 19.5964 24.8336C19.5499 24.8755 19.5267 24.8965 19.5035 24.9383C18.8766 25.5665 17.8318 25.5037 17.2745 24.8336C16.9495 24.4358 16.8798 23.9751 16.9727 23.5145C17.0191 22.991 17.321 22.5722 17.9246 22.3838ZM22.7541 25.2315C22.7076 25.2524 22.6844 25.2734 22.6844 25.2734C22.4987 25.399 22.3129 25.4199 22.1039 25.3571C21.895 25.2734 21.8718 25.1059 21.8485 24.9383V22.5513C21.8485 22.5094 21.8485 22.5932 21.8718 22.3838H22.7541V21.7556H21.8253V20.7087H21.1288V21.8394H20.5251C20.4787 21.8394 20.409 21.8812 20.409 21.9231C20.3858 22.0697 20.409 22.1744 20.409 22.3838H21.152V25.064C21.152 25.399 21.2449 25.6921 21.5699 25.8597C21.9182 26.0481 22.5915 26.0062 22.8934 25.7759C22.9398 25.755 22.963 25.6712 22.963 25.6503C22.8934 25.5246 22.8237 25.3781 22.7541 25.2315Z" fill="#61DAFB"/>
</svg>
