<svg width="22" height="25" viewBox="0 0 22 25" fill="none" xmlns="http://www.w3.org/2000/svg">
<path d="M11 18.5257L20.2268 20.6247V4.33752L11 6.43787V18.5257Z" fill="#8C3123"/>
<path d="M20.2266 4.33752L21.9997 5.17086V19.7962L20.2266 20.6292V4.33752Z" fill="#E05243"/>
<path d="M15.0245 7.24167L11 6.30556V0L15.0245 1.89167V7.24167Z" fill="#E05243"/>
<path d="M11 25L15.0241 23.109V17.759L11 18.6948V25Z" fill="#E05243"/>
<path d="M15.0245 15.1784L11 15.66V9.35413L15.0245 9.82878V15.1784Z" fill="#E05243"/>
<path d="M10.9996 18.5257L1.77246 20.6247V4.33752L10.9996 6.43787V18.5257Z" fill="#E05243"/>
<path d="M1.77238 4.33752L0 5.17086V19.7962L1.77238 20.6292V4.33752Z" fill="#8C3123"/>
<path d="M6.97559 7.24167L10.999 6.30556V0L6.97559 1.89167V7.24167Z" fill="#8C3123"/>
<path d="M10.9994 25L6.97559 23.109V17.759L10.9994 18.6948V25Z" fill="#8C3123"/>
<path d="M6.97559 15.1784L10.999 15.66V9.35413L6.97559 9.82878V15.1784Z" fill="#8C3123"/>
<path d="M15.0235 7.24165L10.999 7.93124L6.97559 7.24165L10.999 6.30554L15.0235 7.24165Z" fill="#5E1F18"/>
<path d="M15.0235 17.7587L10.999 17.0646L6.97559 17.7587L10.999 18.7007L15.0235 17.7587Z" fill="#F2B0A9"/>
</svg>
