<svg width="21" height="26" viewBox="0 0 21 26" fill="none" xmlns="http://www.w3.org/2000/svg">
<path opacity="0.99" d="M0.406086 0.00039734C0.298408 0.000470768 0.195161 0.0432645 0.119021 0.11938C0.0428813 0.195496 7.34514e-05 0.29871 0 0.406354V25.5943C7.36195e-05 25.7019 0.0428813 25.8051 0.119021 25.8812C0.195161 25.9574 0.298408 26.0001 0.406086 26.0002H19.7246C19.8323 26.0001 19.9356 25.9574 20.0117 25.8812C20.0878 25.8051 20.1306 25.7019 20.1307 25.5943V8.24659C20.1313 8.1402 20.0901 8.03784 20.016 7.96149L12.4027 0.158442V0.155348C12.3929 0.144468 12.3826 0.134123 12.3717 0.124359C12.3609 0.113393 12.3495 0.103046 12.3376 0.0933702C12.3257 0.0833712 12.3133 0.0740595 12.3004 0.0654804C12.2884 0.0575972 12.2759 0.050356 12.2632 0.0437877C12.256 0.0404791 12.2488 0.0373784 12.2415 0.0344898C12.2283 0.0286124 12.2149 0.023438 12.2012 0.0189885C12.194 0.0167202 12.1868 0.0146514 12.1795 0.0127846H12.1701C12.1507 0.00824751 12.131 0.00514014 12.1112 0.00348717C12.104 0.00226103 12.0968 0.00122929 12.0895 0.000393179H12.0802H12.0678L0.406086 0.00039734ZM0.812173 0.812311H11.9067L19.3186 8.41083V25.1883H0.812173V0.812311Z" fill="black"/>
<path opacity="0.99" d="M12.0685 0.000160011C11.963 0.00345213 11.8629 0.0476626 11.7894 0.123433C11.7159 0.199203 11.6748 0.300585 11.6748 0.406117V8.24635C11.6749 8.35399 11.7177 8.45721 11.7938 8.53332C11.87 8.60944 11.9732 8.65223 12.0809 8.65231H19.7252C19.8055 8.65263 19.884 8.62921 19.9509 8.585C20.0178 8.54079 20.0702 8.47777 20.1013 8.40387C20.1325 8.32997 20.1411 8.24851 20.126 8.16974C20.1109 8.09097 20.0729 8.01843 20.0166 7.96125L12.3723 0.124116C12.333 0.0834785 12.2858 0.0514659 12.2335 0.0301228C12.1812 0.00877966 12.125 -0.00142497 12.0685 0.000160011ZM12.487 1.40706L18.7643 7.84039H12.487V1.40706Z" fill="black"/>
<path opacity="0.99" d="M7.08869 21.8453C7.08869 22.086 7.04372 22.3002 6.9538 22.488C6.86651 22.6758 6.74353 22.8358 6.58483 22.9681C6.42878 23.0977 6.24364 23.1955 6.0294 23.2616C5.81781 23.3278 5.58902 23.3608 5.34305 23.3608C5.17113 23.3608 5.01111 23.3463 4.863 23.3172C4.71753 23.2881 4.5866 23.2524 4.47023 23.2101C4.35649 23.1678 4.25996 23.1241 4.18061 23.0792C4.10391 23.0342 4.04969 22.9958 4.01795 22.9641C3.98885 22.9324 3.96637 22.8927 3.9505 22.8451C3.93728 22.7948 3.93066 22.7287 3.93066 22.6467C3.93066 22.5885 3.93331 22.5409 3.9386 22.5039C3.9439 22.4642 3.95183 22.4325 3.96241 22.4087C3.97299 22.3849 3.98621 22.369 4.00208 22.361C4.01795 22.3505 4.03646 22.3452 4.05762 22.3452C4.09465 22.3452 4.14623 22.3677 4.21235 22.4126C4.28112 22.4576 4.3684 22.5065 4.4742 22.5594C4.57999 22.6123 4.70695 22.6626 4.85506 22.7102C5.00582 22.7551 5.17907 22.7776 5.37479 22.7776C5.5229 22.7776 5.65779 22.7578 5.77946 22.7181C5.90377 22.6784 6.00957 22.6229 6.09685 22.5515C6.18678 22.4774 6.25554 22.3875 6.30315 22.2817C6.35076 22.1759 6.37457 22.0555 6.37457 21.9206C6.37457 21.7752 6.3415 21.6509 6.27538 21.5477C6.20926 21.4446 6.12198 21.3546 6.01353 21.2779C5.90509 21.1986 5.78078 21.1272 5.6406 21.0637C5.50306 20.9976 5.36156 20.9315 5.21609 20.8654C5.07062 20.7966 4.92912 20.7212 4.79158 20.6392C4.65405 20.5572 4.53106 20.4607 4.42262 20.3496C4.31418 20.2385 4.22557 20.1089 4.1568 19.9608C4.09068 19.81 4.05762 19.6302 4.05762 19.4212C4.05762 19.207 4.09597 19.0166 4.17267 18.8499C4.25202 18.6807 4.36046 18.5392 4.498 18.4254C4.63818 18.3117 4.80348 18.2257 4.99392 18.1675C5.187 18.1067 5.39462 18.0763 5.61679 18.0763C5.73052 18.0763 5.84426 18.0869 5.95799 18.108C6.07436 18.1265 6.1828 18.153 6.28331 18.1874C6.38646 18.2191 6.47771 18.2562 6.55706 18.2985C6.63641 18.3382 6.68798 18.3712 6.71179 18.3977C6.73824 18.4215 6.75543 18.4413 6.76336 18.4572C6.7713 18.4704 6.77791 18.4889 6.7832 18.5127C6.78849 18.5339 6.79246 18.5603 6.7951 18.5921C6.79774 18.6238 6.79906 18.6648 6.79906 18.7151C6.79906 18.7627 6.79641 18.805 6.79112 18.842C6.78848 18.879 6.78319 18.9108 6.77525 18.9372C6.76732 18.961 6.75542 18.9795 6.73955 18.9928C6.72632 19.0033 6.71045 19.0086 6.69194 19.0086C6.66285 19.0086 6.61656 18.9901 6.55308 18.9531C6.49225 18.9161 6.41687 18.8751 6.32694 18.8301C6.23701 18.7825 6.1299 18.7402 6.00558 18.7031C5.88392 18.6635 5.74638 18.6436 5.59298 18.6436C5.45015 18.6436 5.32584 18.6635 5.22005 18.7031C5.11425 18.7402 5.02697 18.7904 4.9582 18.8539C4.88943 18.9174 4.83786 18.9928 4.80347 19.08C4.76909 19.1673 4.7519 19.2599 4.7519 19.3578C4.7519 19.5006 4.78496 19.6236 4.85108 19.7267C4.91721 19.8299 5.00449 19.9211 5.11293 20.0005C5.22401 20.0798 5.34965 20.1526 5.48983 20.2187C5.63001 20.2848 5.77283 20.3522 5.9183 20.421C6.06377 20.4871 6.2066 20.5612 6.34678 20.6432C6.48696 20.7225 6.61127 20.8177 6.71971 20.9288C6.8308 21.0373 6.9194 21.1669 6.98552 21.3176C7.05429 21.4657 7.08869 21.6416 7.08869 21.8453ZM12.9921 23.7377C12.9921 23.7986 12.9881 23.8488 12.9802 23.8885C12.9748 23.9308 12.9656 23.9625 12.9524 23.9837C12.9391 24.0075 12.9246 24.0234 12.9087 24.0313C12.8929 24.0393 12.877 24.0433 12.8611 24.0433C12.8082 24.0433 12.7223 24.0208 12.6032 23.9758C12.4869 23.9335 12.352 23.87 12.1986 23.7854C12.0452 23.7034 11.8812 23.6029 11.7066 23.4839C11.5321 23.3649 11.3628 23.226 11.1988 23.0673C11.0692 23.1467 10.9052 23.2154 10.7068 23.2736C10.5085 23.3318 10.2784 23.3609 10.0165 23.3609C9.63036 23.3609 9.29578 23.304 9.01278 23.1903C8.73242 23.0766 8.49966 22.9099 8.31452 22.6904C8.13202 22.4709 7.99581 22.1984 7.90588 21.8731C7.81596 21.5452 7.77099 21.1696 7.77099 20.7464C7.77099 20.3391 7.81992 19.9714 7.91778 19.6435C8.01564 19.3128 8.16244 19.0325 8.35816 18.8024C8.55388 18.5696 8.79854 18.3911 9.09212 18.2668C9.38571 18.1398 9.72822 18.0764 10.1197 18.0764C10.4873 18.0764 10.81 18.1332 11.0877 18.247C11.3681 18.3607 11.6021 18.5273 11.7899 18.7468C11.9804 18.9637 12.1232 19.2322 12.2184 19.5522C12.3136 19.8722 12.3612 20.2399 12.3612 20.6551C12.3612 20.8694 12.348 21.0744 12.3216 21.2701C12.2978 21.4658 12.2581 21.6509 12.2025 21.8255C12.1496 22.0001 12.0822 22.1614 12.0002 22.3095C11.9182 22.4576 11.8217 22.5912 11.7106 22.7102C11.9037 22.8689 12.0729 22.9932 12.2184 23.0832C12.3639 23.1705 12.4842 23.2366 12.5794 23.2815C12.6747 23.3265 12.7487 23.3582 12.8016 23.3768C12.8545 23.3979 12.8942 23.4204 12.9206 23.4442C12.9471 23.4707 12.9656 23.5064 12.9762 23.5513C12.9868 23.5989 12.9921 23.661 12.9921 23.7377ZM11.6432 20.7027C11.6432 20.4118 11.6168 20.142 11.5639 19.8934C11.5136 19.6447 11.4277 19.4292 11.306 19.2467C11.187 19.0615 11.027 18.9174 10.8259 18.8142C10.6249 18.7111 10.3763 18.6595 10.0801 18.6595C9.78385 18.6595 9.53523 18.715 9.33421 18.8261C9.1332 18.9346 8.96922 19.0827 8.84226 19.2705C8.71795 19.4556 8.62802 19.6712 8.57248 19.9172C8.51958 20.1631 8.49313 20.4237 8.49313 20.6987C8.49313 21.0002 8.51826 21.278 8.56851 21.5319C8.61877 21.7831 8.7034 22.0013 8.82242 22.1865C8.94145 22.3716 9.10014 22.5158 9.29851 22.6189C9.49952 22.7194 9.75079 22.7697 10.0523 22.7697C10.3512 22.7697 10.6024 22.7142 10.8061 22.6031C11.0098 22.492 11.1737 22.3425 11.2981 22.1548C11.4224 21.9643 11.511 21.7448 11.5639 21.4962C11.6168 21.2449 11.6432 20.9804 11.6432 20.7027ZM16.1978 22.9879C16.1978 23.0408 16.1951 23.0858 16.1898 23.1228C16.1844 23.1572 16.1752 23.1876 16.162 23.214C16.1514 23.2378 16.1369 23.2564 16.1184 23.2696C16.1025 23.2802 16.0827 23.2855 16.0588 23.2855H13.7895C13.7287 23.2855 13.6705 23.2656 13.6149 23.2259C13.562 23.1836 13.5356 23.1109 13.5356 23.0077V18.2548C13.5356 18.2337 13.5409 18.2152 13.5515 18.1993C13.562 18.1834 13.5806 18.1715 13.607 18.1636C13.6335 18.153 13.6692 18.1451 13.7141 18.1398C13.7591 18.1318 13.8133 18.1278 13.8768 18.1278C13.9429 18.1278 13.9971 18.1318 14.0394 18.1398C14.0844 18.1451 14.1201 18.153 14.1466 18.1636C14.173 18.1716 14.1915 18.1835 14.2021 18.1993C14.2127 18.2152 14.218 18.2337 14.218 18.2548V22.6943H16.0588C16.0826 22.6943 16.1025 22.7009 16.1183 22.7141C16.1368 22.7247 16.1514 22.7419 16.162 22.7657C16.1752 22.7869 16.1845 22.816 16.1897 22.853C16.1951 22.89 16.1978 22.935 16.1978 22.9879Z" fill="black"/>
</svg>
